<svg width="33" height="32" viewBox="0 0 33 32" fill="none" xmlns="http://www.w3.org/2000/svg">
<path d="M23.375 26.6667C23.375 25.9303 23.9906 25.3334 24.75 25.3334C25.5094 25.3334 26.125 25.9303 26.125 26.6667C26.125 27.4031 25.5094 28 24.75 28C23.9906 28 23.375 27.4031 23.375 26.6667Z" stroke="white" stroke-width="3" stroke-linecap="round" stroke-linejoin="round"/>
<path d="M9.625 26.6667C9.625 25.9303 10.2406 25.3334 11 25.3334C11.7594 25.3334 12.375 25.9303 12.375 26.6667C12.375 27.4031 11.7594 28 11 28C10.2406 28 9.625 27.4031 9.625 26.6667Z" stroke="white" stroke-width="3" stroke-linecap="round" stroke-linejoin="round"/>
<path d="M4.125 4H5.18061C5.84373 4 6.41237 4.45893 6.53276 5.09127L9.625 21.3333" stroke="white" stroke-width="3" stroke-linecap="round" stroke-linejoin="round"/>
<path d="M7.5625 8H27.1466C28.0308 8 28.6852 8.79766 28.4863 9.63315L25.9479 20.2998C25.8039 20.9048 25.2484 21.3333 24.6081 21.3333H9.625" stroke="white" stroke-width="3" stroke-linecap="round" stroke-linejoin="round"/>
</svg>
