<svg width="38" height="39" viewBox="0 0 38 39" fill="none" xmlns="http://www.w3.org/2000/svg">
<g filter="url(#filter0_d_127_408)">
<path d="M18.9917 30.9998C14.8939 30.9998 14.4109 30.9774 12.8118 30.9052C11.5648 30.8629 10.3339 30.6013 9.17213 30.1318C7.1621 29.3246 5.57269 27.684 4.79123 25.6096C4.35365 24.4066 4.11763 23.1354 4.09328 21.8507C4 20.2041 4 19.6644 4 15.4688C4 11.2286 4.02165 10.7336 4.09328 9.09213C4.11816 7.80909 4.35417 6.53974 4.79123 5.3383C5.57185 3.2612 7.16383 1.61915 9.17712 0.81446C10.3409 0.361048 11.5714 0.116881 12.8151 0.0925702C14.4059 -0.000244141 14.9289 -0.000244141 18.9917 -0.000244141C23.1227 -0.000244141 23.5974 0.0221001 25.1716 0.0925702C26.4185 0.117091 27.6523 0.361233 28.8195 0.81446C30.8323 1.62006 32.4239 3.2618 33.2054 5.3383C33.6504 6.55725 33.8877 7.84644 33.9067 9.14885C34 10.7954 34 11.3334 34 15.5273C34 19.7211 33.9767 20.2711 33.9067 21.8988C33.8819 23.1848 33.6453 24.4571 33.2071 25.6612C32.4236 27.737 30.8319 29.3782 28.8195 30.1851C27.6539 30.6357 26.4227 30.8792 25.1782 30.9052C23.5875 30.9998 23.0661 30.9998 18.9917 30.9998ZM18.935 2.72059C14.8606 2.72059 14.4375 2.74122 12.8468 2.81512C11.8973 2.8281 10.9569 3.0089 10.0666 3.34967C8.75195 3.86876 7.71165 4.93781 7.20322 6.29223C6.87043 7.22088 6.69518 8.20176 6.68517 9.19182C6.59689 10.8573 6.59689 11.2939 6.59689 15.4688C6.59689 19.5939 6.61188 20.0941 6.68517 21.7493C6.70009 22.7293 6.87523 23.6997 7.20322 24.6196C7.7124 25.9732 8.75252 27.0414 10.0666 27.5605C10.9563 27.9035 11.897 28.0844 12.8468 28.095C14.4592 28.1913 14.884 28.1913 18.935 28.1913C23.0211 28.1913 23.4442 28.1706 25.0217 28.095C25.9718 28.0831 26.9128 27.9023 27.8034 27.5605C29.1102 27.0369 30.1437 25.9711 30.6519 24.6231C30.984 23.6936 31.1592 22.7123 31.1699 21.7218H31.1882C31.2599 20.0786 31.2599 19.6403 31.2599 15.4413C31.2599 11.2423 31.2415 10.8006 31.1699 9.15916C31.155 8.18023 30.9798 7.21094 30.6519 6.29223C30.1448 4.94225 29.1112 3.8744 27.8034 3.34967C26.913 3.00718 25.9719 2.82633 25.0217 2.81512C23.4109 2.72059 22.9895 2.72059 18.935 2.72059ZM18.9917 23.4079C15.8767 23.41 13.0673 21.4755 11.8737 18.5067C10.6801 15.5379 11.3374 12.1195 13.5391 9.84575C15.7407 7.57202 19.0531 6.89083 21.9313 8.11986C24.8095 9.3489 26.6867 12.2461 26.6874 15.4602C26.6828 19.845 23.2411 23.3994 18.9917 23.4079ZM18.9917 10.3004C16.2318 10.3004 13.9944 12.609 13.9944 15.4568C13.9944 18.3046 16.2318 20.6131 18.9917 20.6131C21.7516 20.6131 23.9889 18.3046 23.9889 15.4568C23.9825 12.6118 21.7489 10.307 18.9917 10.3004ZM26.9872 9.07495C25.9968 9.07114 25.1964 8.24062 25.1982 7.21867C25.2001 6.19671 26.0035 5.36925 26.9939 5.36925C27.9843 5.36925 28.7877 6.1967 28.7896 7.21865C28.79 7.71171 28.6002 8.18465 28.262 8.53297C27.9238 8.88129 27.4651 9.07631 26.9872 9.07495Z" fill="#FF9800"/>
</g>
<defs>
<filter id="filter0_d_127_408" x="0" y="-0.000244141" width="38" height="39" filterUnits="userSpaceOnUse" color-interpolation-filters="sRGB">
<feFlood flood-opacity="0" result="BackgroundImageFix"/>
<feColorMatrix in="SourceAlpha" type="matrix" values="0 0 0 0 0 0 0 0 0 0 0 0 0 0 0 0 0 0 127 0" result="hardAlpha"/>
<feOffset dy="4"/>
<feGaussianBlur stdDeviation="2"/>
<feComposite in2="hardAlpha" operator="out"/>
<feColorMatrix type="matrix" values="0 0 0 0 0 0 0 0 0 0 0 0 0 0 0 0 0 0 0.25 0"/>
<feBlend mode="normal" in2="BackgroundImageFix" result="effect1_dropShadow_127_408"/>
<feBlend mode="normal" in="SourceGraphic" in2="effect1_dropShadow_127_408" result="shape"/>
</filter>
</defs>
</svg>
