<svg width="33" height="33" viewBox="0 0 33 33" fill="none" xmlns="http://www.w3.org/2000/svg">
<path d="M16.5 28.875C23.3345 28.875 28.875 23.3345 28.875 16.5C28.875 9.66548 23.3345 4.125 16.5 4.125C9.66548 4.125 4.125 9.66548 4.125 16.5C4.125 23.3345 9.66548 28.875 16.5 28.875Z" stroke="white" stroke-width="3" stroke-linecap="round" stroke-linejoin="round"/>
<path d="M23.6727 26.5819C21.9103 24.6136 19.3497 23.375 16.4998 23.375C13.6499 23.375 11.0893 24.6136 9.3269 26.5819" stroke="white" stroke-width="3" stroke-linecap="round" stroke-linejoin="round"/>
<path d="M16.5 19.25C18.7782 19.25 20.625 17.4032 20.625 15.125C20.625 12.8468 18.7782 11 16.5 11C14.2218 11 12.375 12.8468 12.375 15.125C12.375 17.4032 14.2218 19.25 16.5 19.25Z" stroke="white" stroke-width="3" stroke-linecap="round" stroke-linejoin="round"/>
</svg>
